<svg width="13" height="13" viewBox="0 0 13 13" fill="none" xmlns="http://www.w3.org/2000/svg">
<path fill-rule="evenodd" clip-rule="evenodd" d="M10.5054 4.41422L9.42933 2.2685C9.35242 2.19159 9.25022 2.16017 9.14947 2.16667H1.94097C1.54231 2.16667 1.21875 2.49022 1.21875 2.88889V6.5C1.21875 6.89867 1.54231 7.22222 1.94097 7.22222L9.16319 7.21356C9.16319 7.21356 9.35603 7.1825 9.42933 7.10955L10.5054 4.96347C10.5867 4.8118 10.5975 4.76234 10.6084 4.68867C10.6134 4.59009 10.5813 4.55144 10.5054 4.41422ZM3.38542 10.1111C3.38542 10.9088 4.03217 11.5556 4.82986 11.5556H5.55208C6.34978 11.5556 6.99653 10.9088 6.99653 10.1111V7.94444H3.38542V10.1111ZM5.55208 0H4.82986C4.03217 0 3.38542 0.64675 3.38542 1.44444H6.99653C6.99653 0.64675 6.34978 0 5.55208 0Z" fill="#052F5F"/>
</svg>
